# xmcd CD database file
#
# Track frame offsets:
#	150
#	10980
#	40980
#	69970
#	99782
#	129812
#	153322
#	181767
#	220395
#	237980
#	276482
#	282992
#
# Disc length: 3982 seconds
#
# Revision: 0
# Processed by: cddbd v1.5.1PL2 Copyright (c) Steve Scherf et al.
# Submitted via: CDex 1.51
#
DISCID=a00f8c0c
DTITLE=Blasphobie - Music
DYEAR=2002
DGENRE=Jazz
TTITLE0=Fire And Ice
TTITLE1=ABBA Gold
TTITLE2=Choral And Rock Out
TTITLE3=Music
TTITLE4=La Storia
TTITLE5=Mas Que Nada
TTITLE6=Rikudim
TTITLE7=Glenn Miller Medley
TTITLE8=When You Believe
TTITLE9=Elisabeth
TTITLE10=Hawaii Five O
TTITLE11=In A Gentle Rain
EXTD=YEAR: 2002
EXTT0=
EXTT1=
EXTT2=
EXTT3=
EXTT4=
EXTT5=
EXTT6=
EXTT7=
EXTT8=
EXTT9=
EXTT10=
EXTT11=
PLAYORDER=
